:FULLY-SPECIFIED
:FORCE-ALL-JOINTS-BE-3DOF
:DEGREES
408
root 4.57465 16.1918 -11.2045 1.10582 -38.6982 -0.960291
lfemur -27.9615 8.06283 -10.2377
ltibia 46.9746 0 0
lfoot -12.67 13.7289 0
ltoes 2.46071 0 0
rfemur -43.9763 -25.864 26.3337
rtibia 86.9108 0 0
rfoot 3.7791 -1.92438 0
rtoes 36.3816 0 0
lowerback 5.91063 4.70561 -0.93926
upperback 1.78946 6.13828 -2.28272
thorax -1.29517 3.05811 -2.24669
lowerneck -6.20317 2.56145 7.42018
upperneck 3.62493 2.7942 -0.11361
head 2.36531 1.49625 -1.21135
lclavicle -3.76136e-014 4.11991e-015 0
lhumerus -45.6121 -17.6803 94.4003
lradius 51.3312 0 0
lwrist 19.1242 0 0
lhand -19.7937 2.30562 0
lfingers 7.12502 0 0
lthumb 6.53843 32.1748 0
rclavicle -3.76136e-014 4.11991e-015 0
rhumerus -45.3331 9.95488 -91.3363
rradius 65.2232 0 0
rwrist 7.63194 0 0
rhand -19.8858 -17.586 0
rfingers 7.12502 0 0
rthumb 6.44994 -767.459 0
409
root 4.52786 16.1866 -11.0747 0.98123 -39.4125 -0.916238
lfemur -28.184 7.88324 -10.417
ltibia 46.4949 0 0
lfoot -12.9905 14.1439 0
ltoes 2.22126 0 0
rfemur -44.1633 -26.0582 26.2841
rtibia 87.7265 0 0
rfoot 4.16905 -1.98801 0
rtoes 36.926 0 0
lowerback 5.98378 4.79561 -0.967328
upperback 1.78493 6.25562 -2.36256
thorax -1.33699 3.11669 -2.32136
lowerneck -6.17674 2.69878 7.56694
upperneck 3.67865 2.96778 -0.198613
head 2.37852 1.58297 -1.25687
lclavicle -3.83654e-014 3.97569e-015 0
lhumerus -45.6312 -17.568 94.2249
lradius 51.211 0 0
lwrist 19.1887 0 0
lhand -20.0795 2.1807 0
lfingers 7.12502 0 0
lthumb 6.26306 32.0681 0
rclavicle -3.83654e-014 3.97569e-015 0
rhumerus -45.4494 10.0386 -91.329
rradius 65.0109 0 0
rwrist 7.73149 0 0
rhand -19.6001 -17.1966 0
rfingers 7.12502 0 0
rthumb 6.72587 -767.07 0
410
root 4.48311 16.1799 -11.0124 1.03819 -37.9002 -1.17898
lfemur -28.704 8.1737 -10.5593
ltibia 46.7372 0 0
lfoot -13.1304 13.8276 0
ltoes 2.37788 0 0
rfemur -43.3051 -25.6404 26.039
rtibia 86.668 0 0
rfoot 4.36908 -2.33747 0
rtoes 35.2182 0 0
lowerback 5.88749 4.71071 -0.830457
upperback 1.74119 6.14777 -2.26807
thorax -1.33074 3.06252 -2.29265
lowerneck -6.20609 2.57542 7.47986
upperneck 3.64701 2.80953 -0.185069
head 2.36886 1.50293 -1.24346
lclavicle -3.75995e-014 4.53696e-015 0
lhumerus -45.6318 -17.6835 94.4288
lradius 51.2162 0 0
lwrist 18.8306 0 0
lhand -20.1992 1.88227 0
lfingers 7.12502 0 0
lthumb 6.1475 31.7715 0
rclavicle -3.75995e-014 4.53696e-015 0
rhumerus -45.6061 9.77591 -91.1383
rradius 64.9671 0 0
rwrist 7.7685 0 0
rhand -19.8263 -17.4175 0
rfingers 7.12502 0 0
rthumb 6.50738 -767.292 0
411
root 4.43837 16.1732 -10.9502 1.09516 -36.3878 -1.44173
lfemur -29.2241 8.46416 -10.7016
ltibia 46.9795 0 0
lfoot -13.2703 13.5113 0
ltoes 2.53449 0 0
rfemur -42.4469 -25.2226 25.794
rtibia 85.6096 0 0
rfoot 4.56911 -2.68693 0
rtoes 33.5105 0 0
lowerback 5.79119 4.62581 -0.693586
upperback 1.69746 6.03993 -2.17359
thorax -1.32449 3.00835 -2.26394
lowerneck -6.23543 2.45206 7.39277
upperneck 3.61537 2.65129 -0.171526
head 2.35921 1.42289 -1.23006
lclavicle -3.68336e-014 5.09824e-015 0
lhumerus -45.6323 -17.799 94.6326
lradius 51.2214 0 0
lwrist 18.4726 0 0
lhand -20.3188 1.58385 0
lfingers 7.12502 0 0
lthumb 6.03195 31.4749 0
rclavicle -3.68336e-014 5.09824e-015 0
rhumerus -45.7627 9.51321 -90.9476
rradius 64.9234 0 0
rwrist 7.80551 0 0
rhand -20.0526 -17.6384 0
rfingers 7.12502 0 0
rthumb 6.28889 -767.514 0
412
root 4.39362 16.1665 -10.8879 1.15212 -34.8755 -1.70447
lfemur -29.7441 8.75461 -10.8439
ltibia 47.2218 0 0
lfoot -13.4101 13.1951 0
ltoes 2.69111 0 0
rfemur -41.5888 -24.8047 25.5489
rtibia 84.5511 0 0
rfoot 4.76915 -3.03639 0
rtoes 31.8027 0 0
lowerback 5.6949 4.5409 -0.556715
upperback 1.65372 5.93208 -2.0791
thorax -1.31824 2.95418 -2.23522
lowerneck -6.26478 2.3287 7.30569
upperneck 3.58373 2.49304 -0.157982
head 2.34955 1.34285 -1.21665
lclavicle -3.60677e-014 5.65951e-015 0
lhumerus -45.6329 -17.9145 94.8365
lradius 51.2265 0 0
lwrist 18.1145 0 0
lhand -20.4385 1.28542 0
lfingers 7.12502 0 0
lthumb 5.91639 31.1782 0
rclavicle -3.60677e-014 5.65951e-015 0
rhumerus -45.9194 9.25052 -90.7568
rradius 64.8796 0 0
rwrist 7.84252 0 0
rhand -20.2788 -17.8593 0
rfingers 7.12502 0 0
rthumb 6.0704 -767.736 0
413
root 4.34887 16.1599 -10.8257 1.20909 -33.3632 -1.96722
lfemur -30.2641 9.04507 -10.9862
ltibia 47.4641 0 0
lfoot -13.55 12.8788 0
ltoes 2.84773 0 0
rfemur -40.7306 -24.3869 25.3038
rtibia 83.4927 0 0
rfoot 4.96918 -3.38585 0
rtoes 30.095 0 0
lowerback 5.59861 4.456 -0.419843
upperback 1.60998 5.82423 -1.98461
thorax -1.312 2.90001 -2.20651
lowerneck -6.29412 2.20535 7.21861
upperneck 3.55209 2.33479 -0.144439
head 2.3399 1.26281 -1.20325
lclavicle -3.53018e-014 6.22079e-015 0
lhumerus -45.6335 -18.0299 95.0404
lradius 51.2317 0 0
lwrist 17.7565 0 0
lhand -20.5582 0.98699 0
lfingers 7.12502 0 0
lthumb 5.80083 30.8816 0
rclavicle -3.53018e-014 6.22079e-015 0
rhumerus -46.0761 8.98782 -90.5661
rradius 64.8358 0 0
rwrist 7.87953 0 0
rhand -20.5051 -18.0801 0
rfingers 7.12502 0 0
rthumb 5.85191 -767.958 0
414
root 4.30412 16.1532 -10.7634 1.26605 -31.8508 -2.22996
lfemur -30.7842 9.33553 -11.1285
ltibia 47.7065 0 0
lfoot -13.6899 12.5625 0
ltoes 3.00434 0 0
rfemur -39.8724 -23.9691 25.0587
rtibia 82.4342 0 0
rfoot 5.16921 -3.73531 0
rtoes 28.3872 0 0
lowerback 5.50231 4.3711 -0.282972
upperback 1.56624 5.71639 -1.89013
thorax -1.30575 2.84584 -2.1778
lowerneck -6.32347 2.08199 7.13153
upperneck 3.52046 2.17654 -0.130895
head 2.33024 1.18277 -1.18984
lclavicle -3.45359e-014 6.78206e-015 0
lhumerus -45.634 -18.1454 95.2442
lradius 51.2369 0 0
lwrist 17.3984 0 0
lhand -20.6778 0.688563 0
lfingers 7.12502 0 0
lthumb 5.68528 30.585 0
rclavicle -3.45359e-014 6.78206e-015 0
rhumerus -46.2328 8.72513 -90.3754
rradius 64.7921 0 0
rwrist 7.91654 0 0
rhand -20.7313 -18.301 0
rfingers 7.12502 0 0
rthumb 5.63342 -768.18 0
415
root 4.25938 16.1465 -10.7012 1.32302 -30.3385 -2.4927
lfemur -31.3042 9.62599 -11.2708
ltibia 47.9488 0 0
lfoot -13.8298 12.2462 0
ltoes 3.16096 0 0
rfemur -39.0142 -23.5513 24.8137
rtibia 81.3758 0 0
rfoot 5.36924 -4.08477 0
rtoes 26.6795 0 0
lowerback 5.40602 4.2862 -0.146101
upperback 1.52251 5.60854 -1.79564
thorax -1.2995 2.79168 -2.14909
lowerneck -6.35282 1.95863 7.04444
upperneck 3.48882 2.0183 -0.117351
head 2.32058 1.10273 -1.17644
lclavicle -3.377e-014 7.34334e-015 0
lhumerus -45.6346 -18.2609 95.4481
lradius 51.2421 0 0
lwrist 17.0404 0 0
lhand -20.7975 0.390135 0
lfingers 7.12502 0 0
lthumb 5.56972 30.2884 0
rclavicle -3.377e-014 7.34334e-015 0
rhumerus -46.3894 8.46243 -90.1847
rradius 64.7483 0 0
rwrist 7.95355 0 0
rhand -20.9576 -18.5219 0
rfingers 7.12502 0 0
rthumb 5.41493 -768.402 0
416
root 4.21463 16.1398 -10.6389 1.37998 -28.8261 -2.75545
lfemur -31.8242 9.91645 -11.4131
ltibia 48.1911 0 0
lfoot -13.9697 11.93 0
ltoes 3.31758 0 0
rfemur -38.156 -23.1335 24.5686
rtibia 80.3173 0 0
rfoot 5.56928 -4.43423 0
rtoes 24.9717 0 0
lowerback 5.30973 4.2013 -0.00923004
upperback 1.47877 5.50069 -1.70116
thorax -1.29325 2.73751 -2.12037
lowerneck -6.38216 1.83527 6.95736
upperneck 3.45718 1.86005 -0.103808
head 2.31093 1.02269 -1.16303
lclavicle -3.30041e-014 7.90461e-015 0
lhumerus -45.6352 -18.3764 95.652
lradius 51.2473 0 0
lwrist 16.6823 0 0
lhand -20.9171 0.0917078 0
lfingers 7.12502 0 0
lthumb 5.45417 29.9917 0
rclavicle -3.30041e-014 7.90461e-015 0
rhumerus -46.5461 8.19974 -89.994
rradius 64.7045 0 0
rwrist 7.99055 0 0
rhand -21.1838 -18.7428 0
rfingers 7.12502 0 0
rthumb 5.19644 -768.625 0
417
root 4.16988 16.1331 -10.5767 1.43694 -27.3138 -3.01819
lfemur -32.3443 10.2069 -11.5554
ltibia 48.4334 0 0
lfoot -14.1096 11.6137 0
ltoes 3.47419 0 0
rfemur -37.2979 -22.7157 24.3235
rtibia 79.2589 0 0
rfoot 5.76931 -4.78369 0
rtoes 23.264 0 0
lowerback 5.21343 4.1164 0.127641
upperback 1.43503 5.39285 -1.60667
thorax -1.287 2.68334 -2.09166
lowerneck -6.41151 1.71191 6.87028
upperneck 3.42554 1.7018 -0.0902641
head 2.30127 0.94265 -1.14963
lclavicle -3.22382e-014 8.46589e-015 0
lhumerus -45.6357 -18.4919 95.8558
lradius 51.2525 0 0
lwrist 16.3242 0 0
lhand -21.0368 -0.20672 0
lfingers 7.12502 0 0
lthumb 5.33861 29.6951 0
rclavicle -3.22382e-014 8.46589e-015 0
rhumerus -46.7028 7.93705 -89.8033
rradius 64.6608 0 0
rwrist 8.02756 0 0
rhand -21.4101 -18.9637 0
rfingers 7.12502 0 0
rthumb 4.97795 -768.847 0
